<svg id="Ebene_1" data-name="Ebene 1" xmlns="http://www.w3.org/2000/svg" xmlns:xlink="http://www.w3.org/1999/xlink" viewBox="0 0 68.88 68.88"><defs><style>.cls-1,.cls-4,.cls-5{fill:none;}.cls-2{clip-path:url(#clip-path);}.cls-3{fill:#a6c7d5;}.cls-4,.cls-5{stroke:#005f87;stroke-miterlimit:3.86;}.cls-4{stroke-width:0.85px;}.cls-5{stroke-width:1.98px;}.cls-6{fill:#005f87;}</style><clipPath id="clip-path" transform="translate(-1080.92 -1161.55)"><rect class="cls-1" width="2314" height="2412"/></clipPath></defs><title>G_SY02_XX_02401H</title><g class="cls-2"><path class="cls-3" d="M1149.38,1196a34,34,0,1,1-34-34,34,34,0,0,1,34,34" transform="translate(-1080.92 -1161.55)"/><path class="cls-4" d="M1149.38,1196a34,34,0,1,1-34-34A34,34,0,0,1,1149.38,1196Z" transform="translate(-1080.92 -1161.55)"/><line class="cls-5" x1="34.44" y1="27.62" x2="34.44" y2="8.53"/><line class="cls-5" x1="34.44" y1="61.12" x2="34.44" y2="41.12"/><polygon class="cls-6" points="34.44 9.51 38.35 9.51 36.39 6.73 34.43 3.94 32.48 6.74 30.53 9.52 34.44 9.51"/><polygon class="cls-6" points="34.44 59.37 38.35 59.38 36.39 62.16 34.43 64.94 32.48 62.15 30.53 59.36 34.44 59.37"/><line class="cls-5" x1="64.94" y1="34.44" x2="45.85" y2="34.44"/><line class="cls-5" x1="23.26" y1="34.44" x2="3.03" y2="34.44"/><polygon class="cls-6" points="46.84 34.44 46.83 30.53 44.05 32.49 41.27 34.45 44.06 36.4 46.84 38.35 46.84 34.44"/><polygon class="cls-6" points="21.51 34.44 21.52 30.53 24.3 32.49 27.08 34.45 24.29 36.4 21.5 38.35 21.51 34.44"/></g></svg>