<svg id="GRAPHIC" xmlns="http://www.w3.org/2000/svg" viewBox="0 0 62.93 57.54"><defs><style>.cls-1{fill:#a6c7d5;}.cls-2,.cls-4,.cls-6,.cls-8{fill:none;}.cls-2,.cls-6,.cls-8{stroke:#005f87;}.cls-2{stroke-width:0.85px;}.cls-3{fill:#e5f5f9;}.cls-3,.cls-5{fill-rule:evenodd;}.cls-4{stroke:#a6c7d5;}.cls-4,.cls-6{stroke-width:0.23px;}.cls-5{fill:#005f87;}.cls-7{fill:#ffed00;}.cls-8{stroke-width:0.37px;}</style></defs><title>G_SY02_XX_02043H</title><rect class="cls-1" x="0.43" y="0.43" width="62.08" height="56.69"/><rect class="cls-2" x="0.43" y="0.43" width="62.08" height="56.69"/><polyline class="cls-3" points="3.84 22.12 5.3 22.12 5.3 20.67 3.84 20.67 3.84 22.12"/><polyline class="cls-4" points="3.84 22.12 5.3 22.12 5.3 20.67 3.84 20.67 3.84 22.12"/><polyline class="cls-3" points="5.3 22.12 6.75 22.12 6.75 20.67 5.3 20.67 5.3 22.12"/><polyline class="cls-4" points="5.3 22.12 6.75 22.12 6.75 20.67 5.3 20.67 5.3 22.12"/><polyline class="cls-5" points="4.22 5.67 14.51 5.67 14.51 8.32 4.22 8.32 4.22 5.67"/><path class="cls-5" d="M1135,1184.22" transform="translate(-1125.61 -1177.23)"/><polyline class="cls-3" points="34.27 22.12 35.73 22.12 35.73 20.67 34.27 20.67 34.27 22.12"/><polyline class="cls-4" points="34.27 22.12 35.73 22.12 35.73 20.67 34.27 20.67 34.27 22.12"/><polyline class="cls-3" points="35.73 22.12 37.18 22.12 37.18 20.67 35.73 20.67 35.73 22.12"/><polyline class="cls-4" points="35.73 22.12 37.18 22.12 37.18 20.67 35.73 20.67 35.73 22.12"/><polyline class="cls-3" points="37.18 22.12 38.63 22.12 38.63 20.67 37.18 20.67 37.18 22.12"/><polyline class="cls-4" points="37.18 22.12 38.63 22.12 38.63 20.67 37.18 20.67 37.18 22.12"/><polyline class="cls-3" points="38.63 22.12 40.09 22.12 40.09 20.67 38.63 20.67 38.63 22.12"/><polyline class="cls-4" points="38.63 22.12 40.09 22.12 40.09 20.67 38.63 20.67 38.63 22.12"/><polyline class="cls-3" points="40.09 22.12 41.54 22.12 41.54 20.67 40.09 20.67 40.09 22.12"/><polyline class="cls-4" points="40.09 22.12 41.54 22.12 41.54 20.67 40.09 20.67 40.09 22.12"/><polyline class="cls-3" points="41.54 22.12 42.99 22.12 42.99 20.67 41.54 20.67 41.54 22.12"/><polyline class="cls-4" points="41.54 22.12 42.99 22.12 42.99 20.67 41.54 20.67 41.54 22.12"/><polyline class="cls-3" points="42.99 22.12 44.45 22.12 44.45 20.67 42.99 20.67 42.99 22.12"/><polyline class="cls-4" points="42.99 22.12 44.45 22.12 44.45 20.67 42.99 20.67 42.99 22.12"/><polyline class="cls-3" points="44.45 22.12 45.9 22.12 45.9 20.67 44.45 20.67 44.45 22.12"/><polyline class="cls-4" points="44.45 22.12 45.9 22.12 45.9 20.67 44.45 20.67 44.45 22.12"/><polyline class="cls-3" points="49.99 22.12 51.44 22.12 51.44 20.67 49.99 20.67 49.99 22.12"/><polyline class="cls-4" points="49.99 22.12 51.44 22.12 51.44 20.67 49.99 20.67 49.99 22.12"/><polyline class="cls-3" points="51.44 22.12 52.89 22.12 52.89 20.67 51.44 20.67 51.44 22.12"/><polyline class="cls-4" points="51.44 22.12 52.89 22.12 52.89 20.67 51.44 20.67 51.44 22.12"/><polyline class="cls-3" points="52.89 22.12 54.35 22.12 54.35 20.67 52.89 20.67 52.89 22.12"/><polyline class="cls-4" points="52.89 22.12 54.35 22.12 54.35 20.67 52.89 20.67 52.89 22.12"/><polyline class="cls-3" points="54.35 22.12 55.8 22.12 55.8 20.67 54.35 20.67 54.35 22.12"/><polyline class="cls-4" points="54.35 22.12 55.8 22.12 55.8 20.67 54.35 20.67 54.35 22.12"/><polyline class="cls-3" points="55.8 22.12 57.25 22.12 57.25 20.67 55.8 20.67 55.8 22.12"/><polyline class="cls-4" points="55.8 22.12 57.25 22.12 57.25 20.67 55.8 20.67 55.8 22.12"/><polyline class="cls-3" points="57.25 22.12 58.71 22.12 58.71 20.67 57.25 20.67 57.25 22.12"/><polyline class="cls-4" points="57.25 22.12 58.71 22.12 58.71 20.67 57.25 20.67 57.25 22.12"/><polyline class="cls-3" points="34.27 36.92 35.73 36.92 35.73 35.47 34.27 35.47 34.27 36.92"/><polyline class="cls-4" points="34.27 36.92 35.73 36.92 35.73 35.47 34.27 35.47 34.27 36.92"/><polyline class="cls-3" points="35.74 36.92 37.2 36.92 37.2 35.47 35.74 35.47 35.74 36.92"/><polyline class="cls-4" points="35.74 36.92 37.2 36.92 37.2 35.47 35.74 35.47 35.74 36.92"/><polyline class="cls-3" points="37.18 36.92 38.63 36.92 38.63 35.47 37.18 35.47 37.18 36.92"/><polyline class="cls-4" points="37.18 36.92 38.63 36.92 38.63 35.47 37.18 35.47 37.18 36.92"/><polyline class="cls-3" points="38.63 36.92 40.09 36.92 40.09 35.47 38.63 35.47 38.63 36.92"/><polyline class="cls-4" points="38.63 36.92 40.09 36.92 40.09 35.47 38.63 35.47 38.63 36.92"/><polyline class="cls-3" points="40.09 36.92 41.54 36.92 41.54 35.47 40.09 35.47 40.09 36.92"/><polyline class="cls-4" points="40.09 36.92 41.54 36.92 41.54 35.47 40.09 35.47 40.09 36.92"/><polyline class="cls-3" points="41.54 36.92 42.99 36.92 42.99 35.47 41.54 35.47 41.54 36.92"/><polyline class="cls-4" points="41.54 36.92 42.99 36.92 42.99 35.47 41.54 35.47 41.54 36.92"/><polyline class="cls-3" points="42.99 36.92 44.45 36.92 44.45 35.47 42.99 35.47 42.99 36.92"/><polyline class="cls-4" points="42.99 36.92 44.45 36.92 44.45 35.47 42.99 35.47 42.99 36.92"/><polyline class="cls-3" points="44.45 36.92 45.9 36.92 45.9 35.47 44.45 35.47 44.45 36.92"/><polyline class="cls-4" points="44.45 36.92 45.9 36.92 45.9 35.47 44.45 35.47 44.45 36.92"/><polyline class="cls-3" points="49.99 36.92 51.44 36.92 51.44 35.47 49.99 35.47 49.99 36.92"/><polyline class="cls-4" points="49.99 36.92 51.44 36.92 51.44 35.47 49.99 35.47 49.99 36.92"/><polyline class="cls-3" points="51.44 36.92 52.89 36.92 52.89 35.47 51.44 35.47 51.44 36.92"/><polyline class="cls-4" points="51.44 36.92 52.89 36.92 52.89 35.47 51.44 35.47 51.44 36.92"/><polyline class="cls-3" points="52.89 36.92 54.35 36.92 54.35 35.47 52.89 35.47 52.89 36.92"/><polyline class="cls-4" points="52.89 36.92 54.35 36.92 54.35 35.47 52.89 35.47 52.89 36.92"/><polyline class="cls-3" points="54.35 36.92 55.8 36.92 55.8 35.47 54.35 35.47 54.35 36.92"/><polyline class="cls-4" points="54.35 36.92 55.8 36.92 55.8 35.47 54.35 35.47 54.35 36.92"/><polyline class="cls-3" points="55.8 36.92 57.25 36.92 57.25 35.47 55.8 35.47 55.8 36.92"/><polyline class="cls-4" points="55.8 36.92 57.25 36.92 57.25 35.47 55.8 35.47 55.8 36.92"/><polyline class="cls-3" points="57.25 36.92 58.71 36.92 58.71 35.47 57.25 35.47 57.25 36.92"/><polyline class="cls-4" points="57.25 36.92 58.71 36.92 58.71 35.47 57.25 35.47 57.25 36.92"/><polyline class="cls-3" points="6.75 22.12 8.2 22.12 8.2 20.67 6.75 20.67 6.75 22.12"/><polyline class="cls-4" points="6.75 22.12 8.2 22.12 8.2 20.67 6.75 20.67 6.75 22.12"/><path class="cls-2" d="M1126,1181.17h48.44a32.69,32.69,0,0,1,13.64-3.1" transform="translate(-1125.61 -1177.23)"/><path class="cls-2" d="M1187.75,1230.89h-48a32.64,32.64,0,0,1-13.64,3.1" transform="translate(-1125.61 -1177.23)"/><line class="cls-6" x1="10.05" y1="19.75" x2="10.05" y2="37.93"/><line class="cls-6" x1="31.55" y1="19.87" x2="31.55" y2="37.67"/><rect class="cls-7" x="1.21" y="22.91" width="2.02" height="11.72"/><rect class="cls-7" x="59.58" y="22.91" width="2.02" height="11.72"/><line class="cls-8" x1="0.71" y1="19.87" x2="62.51" y2="19.87"/><line class="cls-8" x1="0.71" y1="22.91" x2="62.51" y2="22.91"/><line class="cls-8" x1="0.28" y1="34.63" x2="62.51" y2="34.63"/><line class="cls-8" x1="0.28" y1="37.67" x2="62.51" y2="37.67"/></svg>